# Blender v3.1.2 OBJ File: ''
# www.blender.org
mtllib untitled.mtl
o cube.020
v -0.044051 1.668243 -0.652950
v -0.303002 1.667927 -0.435709
v -0.553559 2.376411 -0.733344
v -0.294608 2.376728 -0.950584
v 0.241402 1.912287 -0.312333
v -0.009155 2.620772 -0.609967
v -0.017549 1.911971 -0.095093
v -0.268106 2.620456 -0.392727
v 1.009884 -0.178259 0.749286
v 0.897297 -0.178396 0.843738
v 0.077291 2.140280 -0.130338
v 0.189879 2.140418 -0.224790
v 1.092624 -0.107521 0.848015
v 0.272619 2.211155 -0.126061
v 0.980037 -0.107659 0.942468
v 0.160031 2.211018 -0.031608
v 1.028735 -0.228113 0.714519
v 0.859854 -0.228319 0.856198
v 0.745964 0.093720 0.720909
v 0.914845 0.093926 0.579231
v 1.152845 -0.122007 0.862613
v 1.038955 0.200032 0.727325
v 0.983964 -0.122213 1.004292
v 0.870074 0.199826 0.869004
v 0.991153 -0.076927 0.647076
v 0.799755 -0.077161 0.807645
v 0.826048 0.063944 0.839192
v 1.017447 0.064178 0.678623
v 1.081872 -0.117994 0.755154
v 1.108166 0.023111 0.786701
v 0.890474 -0.118228 0.915723
v 0.916767 0.022877 0.947270
v 0.911861 0.100986 0.598549
v 0.765497 0.100807 0.721337
v 0.514940 0.809292 0.423703
v 0.661303 0.809470 0.300915
v 1.019423 0.192944 0.726897
v 0.768865 0.901429 0.429263
v 0.873059 0.192766 0.849685
v 0.622502 0.901250 0.552051
v 0.687066 0.738003 0.308654
v 0.518185 0.737796 0.450333
v 0.495407 0.802204 0.423275
v 0.664288 0.802410 0.281597
v 0.811176 0.844109 0.456748
v 0.788398 0.908516 0.429691
v 0.642295 0.843903 0.598427
v 0.619517 0.908310 0.571369
v 0.641510 0.866818 0.254539
v 0.472629 0.866612 0.396217
v 0.449851 0.931019 0.369160
v 0.618732 0.931226 0.227481
v 0.765620 0.972924 0.402633
v 0.742842 1.037332 0.375575
v 0.596739 0.972718 0.544312
v 0.573961 1.037126 0.517254
v 1.045543 -0.278400 0.780213
v 0.921697 -0.278552 0.884111
v 0.830585 -0.020921 0.775880
v 0.954432 -0.020770 0.671983
v 1.136557 -0.200589 0.888816
v 1.045446 0.057042 0.780585
v 1.012711 -0.200740 0.992713
v 0.921599 0.056890 0.884483
v 0.104843 2.375842 -0.382975
v -0.064038 2.375635 -0.241296
v -0.035116 2.530851 -0.206595
v 0.133765 2.531057 -0.348273
v 0.204634 2.330667 -0.264089
v 0.233556 2.485883 -0.229388
v 0.035753 2.330462 -0.122411
v 0.064675 2.485677 -0.087709
v 0.195427 2.004921 -0.252673
v 0.049063 2.004743 -0.129885
v -0.155939 2.584412 -0.373404
v -0.009575 2.584590 -0.496192
v 0.369181 2.153470 -0.045341
v 0.164179 2.733139 -0.288860
v 0.222817 2.153291 0.077447
v 0.017816 2.732961 -0.166072
v 0.190424 2.188030 -0.281235
v 0.021543 2.187824 -0.139557
v -0.049069 2.387488 -0.223436
v 0.119812 2.387694 -0.365114
v 0.289712 2.272915 -0.162760
v 0.219100 2.472579 -0.246639
v 0.120831 2.272709 -0.021082
v 0.050219 2.472373 -0.104960
v 0.175711 2.175452 -0.298791
v 0.006830 2.175246 -0.157113
v 0.035753 2.330462 -0.122411
v 0.204634 2.330667 -0.264089
v 0.275502 2.130278 -0.179906
v 0.304425 2.285494 -0.145204
v 0.106621 2.130072 -0.038227
v 0.135543 2.285287 -0.003526
v 0.262820 1.904387 -0.149620
v 0.138974 1.904236 -0.045723
v 0.070640 2.097459 -0.126896
v 0.194486 2.097610 -0.230793
v 0.370382 1.996346 -0.021272
v 0.302048 2.189569 -0.102445
v 0.246536 1.996194 0.082626
v 0.178202 2.189417 0.001452
v 0.299841 1.832933 -0.151326
v 0.130960 1.832727 -0.009648
v 0.108182 1.897135 -0.036705
v 0.277063 1.897341 -0.178384
v 0.423951 1.939040 -0.003232
v 0.401173 2.003447 -0.030289
v 0.255070 1.938833 0.138447
v 0.232292 2.003241 0.111389
v 0.130694 2.506957 -0.374836
v -0.060705 2.506723 -0.214267
v -0.052817 2.549054 -0.204803
v 0.138582 2.549288 -0.365371
v 0.248628 2.453569 -0.234335
v 0.256516 2.495901 -0.224870
v 0.057230 2.453335 -0.073766
v 0.065117 2.495667 -0.064302
v 0.300971 2.272929 -0.172205
v 0.109572 2.272695 -0.011636
v 0.038960 2.472359 -0.095515
v 0.230359 2.472592 -0.256084
v 0.327447 2.295565 -0.140612
v 0.256836 2.495229 -0.224491
v 0.136049 2.295331 0.019957
v 0.065437 2.494995 -0.063922
v 0.104401 2.365851 -0.406382
v -0.086998 2.365618 -0.245813
v -0.052817 2.549054 -0.204803
v 0.138582 2.549288 -0.365371
v 0.131616 2.353531 -0.373959
v 0.165797 2.536968 -0.332948
v -0.059783 2.353297 -0.213390
v -0.025602 2.536734 -0.172379
v 0.265988 2.124394 -0.214121
v 0.074589 2.124161 -0.053552
v 0.108770 2.307597 -0.012541
v 0.300169 2.307831 -0.173110
v 0.293203 2.112074 -0.181698
v 0.327384 2.295511 -0.140687
v 0.101805 2.111841 -0.021129
v 0.135986 2.295278 0.019882
v 0.175269 2.165462 -0.322199
v -0.016130 2.165228 -0.161630
v -0.008242 2.207560 -0.152166
v 0.183157 2.207793 -0.312735
v 0.293203 2.112074 -0.181698
v 0.301091 2.154406 -0.172234
v 0.101805 2.111841 -0.021129
v 0.109693 2.154172 -0.011665
v 0.175206 2.165408 -0.322274
v -0.016193 2.165174 -0.161705
v -0.086805 2.364838 -0.245584
v 0.104594 2.365072 -0.406153
v 0.201683 2.188044 -0.290681
v 0.131071 2.387708 -0.374559
v 0.010284 2.187810 -0.130112
v -0.060328 2.387474 -0.213990
v 0.197729 1.940920 -0.307185
v -0.004928 1.940672 -0.137171
v -0.232707 2.584749 -0.407748
v -0.030050 2.584997 -0.577762
v 0.234963 1.972752 -0.262757
v 0.007183 2.616828 -0.533333
v 0.032305 1.972504 -0.092743
v -0.195474 2.616581 -0.363319
v 0.408717 2.121300 -0.055425
v 0.206059 2.121053 0.114589
v -0.021720 2.765130 -0.155988
v 0.180937 2.765377 -0.326002
v 0.445950 2.153132 -0.010997
v 0.218170 2.797209 -0.281573
v 0.243292 2.152884 0.159017
v 0.015513 2.796961 -0.111559
v 0.477212 2.113889 -0.030954
v 0.218260 2.113573 0.186286
v -0.032297 2.822057 -0.111348
v 0.226654 2.822373 -0.328588
v 0.762665 2.357933 0.309663
v 0.512107 3.066418 0.012028
v 0.503713 2.357617 0.526903
v 0.253156 3.066102 0.229269
vt 0.031250 0.695312
vt 0.066406 0.695312
vt 0.066406 0.781250
vt 0.031250 0.781250
vt 0.000000 0.914062
vt 0.054688 0.914062
vt 0.054688 1.000000
vt 0.000000 1.000000
vt 0.093750 0.695312
vt 0.128906 0.695312
vt 0.128906 0.781250
vt 0.093750 0.781250
vt 0.078125 0.914062
vt 0.132812 0.914062
vt 0.132812 1.000000
vt 0.078125 1.000000
vt 0.285156 0.687500
vt 0.250000 0.687500
vt 0.250000 0.632812
vt 0.285156 0.632812
vt 0.347656 0.632812
vt 0.312500 0.632812
vt 0.312500 0.687500
vt 0.347656 0.687500
vt 0.156250 0.718750
vt 0.171875 0.718750
vt 0.171875 1.000000
vt 0.156250 1.000000
vt 0.187500 0.718750
vt 0.203125 0.718750
vt 0.203125 1.000000
vt 0.187500 1.000000
vt 0.000000 0.500000
vt 0.015625 0.500000
vt 0.015625 0.781250
vt 0.000000 0.781250
vt 0.218750 0.718750
vt 0.234375 0.718750
vt 0.234375 1.000000
vt 0.218750 1.000000
vt 0.328125 0.812500
vt 0.312500 0.812500
vt 0.312500 0.796875
vt 0.328125 0.796875
vt 0.375000 0.828125
vt 0.359375 0.828125
vt 0.359375 0.843750
vt 0.375000 0.843750
vt 0.390625 0.742188
vt 0.414062 0.742188
vt 0.414062 0.781250
vt 0.390625 0.781250
vt 0.250000 0.570312
vt 0.273438 0.570312
vt 0.273438 0.609375
vt 0.250000 0.609375
vt 0.296875 0.570312
vt 0.320312 0.570312
vt 0.320312 0.609375
vt 0.296875 0.609375
vt 0.406250 0.960938
vt 0.429688 0.960938
vt 0.429688 1.000000
vt 0.406250 1.000000
vt 0.460938 0.796875
vt 0.437500 0.796875
vt 0.437500 0.773438
vt 0.460938 0.773438
vt 0.476562 0.976562
vt 0.453125 0.976562
vt 0.453125 1.000000
vt 0.476562 1.000000
vt 0.375000 0.484375
vt 0.402344 0.484375
vt 0.402344 0.500000
vt 0.375000 0.500000
vt 0.437500 0.734375
vt 0.453125 0.734375
vt 0.453125 0.750000
vt 0.437500 0.750000
vt 0.500000 0.500000
vt 0.527344 0.500000
vt 0.527344 0.515625
vt 0.500000 0.515625
vt 0.187500 0.453125
vt 0.203125 0.453125
vt 0.203125 0.468750
vt 0.187500 0.468750
vt 0.542969 0.906250
vt 0.515625 0.906250
vt 0.515625 0.890625
vt 0.542969 0.890625
vt 0.542969 0.859375
vt 0.515625 0.859375
vt 0.515625 0.875000
vt 0.542969 0.875000
vt 0.343750 0.726562
vt 0.363281 0.726562
vt 0.363281 0.812500
vt 0.343750 0.812500
vt 0.359375 0.914062
vt 0.378906 0.914062
vt 0.378906 1.000000
vt 0.359375 1.000000
vt 0.375000 0.617188
vt 0.394531 0.617188
vt 0.394531 0.703125
vt 0.375000 0.703125
vt 0.390625 0.804688
vt 0.410156 0.804688
vt 0.410156 0.890625
vt 0.390625 0.890625
vt 0.535156 0.765625
vt 0.515625 0.765625
vt 0.515625 0.746094
vt 0.535156 0.746094
vt 0.535156 0.699219
vt 0.515625 0.699219
vt 0.515625 0.718750
vt 0.535156 0.718750
vt 0.406250 0.445312
vt 0.429688 0.445312
vt 0.429688 0.453125
vt 0.406250 0.453125
vt 0.546875 0.507812
vt 0.570312 0.507812
vt 0.570312 0.515625
vt 0.546875 0.515625
vt 0.500000 0.445312
vt 0.523438 0.445312
vt 0.523438 0.453125
vt 0.500000 0.453125
vt 0.546875 0.476562
vt 0.570312 0.476562
vt 0.570312 0.484375
vt 0.546875 0.484375
vt 0.054688 0.546875
vt 0.031250 0.546875
vt 0.031250 0.523438
vt 0.054688 0.523438
vt 0.476562 0.929688
vt 0.453125 0.929688
vt 0.453125 0.953125
vt 0.476562 0.953125
vt 0.546875 0.445312
vt 0.570312 0.445312
vt 0.570312 0.453125
vt 0.546875 0.453125
vt 0.562500 0.992188
vt 0.585938 0.992188
vt 0.585938 1.000000
vt 0.562500 1.000000
vt 0.562500 0.914062
vt 0.585938 0.914062
vt 0.585938 0.921875
vt 0.562500 0.921875
vt 0.562500 0.882812
vt 0.585938 0.882812
vt 0.585938 0.890625
vt 0.562500 0.890625
vt 0.101562 0.546875
vt 0.078125 0.546875
vt 0.078125 0.523438
vt 0.101562 0.523438
vt 0.273438 0.523438
vt 0.250000 0.523438
vt 0.250000 0.546875
vt 0.273438 0.546875
vt 0.359375 0.859375
vt 0.375000 0.859375
vt 0.375000 0.890625
vt 0.359375 0.890625
vt 0.203125 0.484375
vt 0.218750 0.484375
vt 0.218750 0.515625
vt 0.203125 0.515625
vt 0.468750 0.484375
vt 0.484375 0.484375
vt 0.484375 0.515625
vt 0.468750 0.515625
vt 0.500000 0.968750
vt 0.515625 0.968750
vt 0.515625 1.000000
vt 0.500000 1.000000
vt 0.546875 0.812500
vt 0.531250 0.812500
vt 0.531250 0.796875
vt 0.546875 0.796875
vt 0.390625 0.453125
vt 0.375000 0.453125
vt 0.375000 0.468750
vt 0.390625 0.468750
vt 0.515625 0.828125
vt 0.539062 0.828125
vt 0.539062 0.843750
vt 0.515625 0.843750
vt 0.468750 0.453125
vt 0.484375 0.453125
vt 0.484375 0.468750
vt 0.468750 0.468750
vt 0.515625 0.656250
vt 0.539062 0.656250
vt 0.539062 0.671875
vt 0.515625 0.671875
vt 0.031250 0.437500
vt 0.046875 0.437500
vt 0.046875 0.453125
vt 0.031250 0.453125
vt 0.539062 0.640625
vt 0.515625 0.640625
vt 0.515625 0.625000
vt 0.539062 0.625000
vt 0.539062 0.593750
vt 0.515625 0.593750
vt 0.515625 0.609375
vt 0.539062 0.609375
vt 0.156250 0.539062
vt 0.175781 0.539062
vt 0.175781 0.609375
vt 0.156250 0.609375
vt 0.250000 0.710938
vt 0.281250 0.710938
vt 0.281250 0.781250
vt 0.250000 0.781250
vt 0.203125 0.539062
vt 0.222656 0.539062
vt 0.222656 0.609375
vt 0.203125 0.609375
vt 0.156250 0.632812
vt 0.187500 0.632812
vt 0.187500 0.703125
vt 0.156250 0.703125
vt 0.410156 0.593750
vt 0.390625 0.593750
vt 0.390625 0.562500
vt 0.410156 0.562500
vt 0.441406 0.687500
vt 0.421875 0.687500
vt 0.421875 0.718750
vt 0.441406 0.718750
vt 0.296875 0.523438
vt 0.320312 0.523438
vt 0.320312 0.546875
vt 0.296875 0.546875
vt 0.031250 0.476562
vt 0.050781 0.476562
vt 0.050781 0.500000
vt 0.031250 0.500000
vt 0.343750 0.523438
vt 0.367188 0.523438
vt 0.367188 0.546875
vt 0.343750 0.546875
vt 0.500000 0.929688
vt 0.519531 0.929688
vt 0.519531 0.953125
vt 0.500000 0.953125
vt 0.101562 0.500000
vt 0.078125 0.500000
vt 0.078125 0.480469
vt 0.101562 0.480469
vt 0.257812 0.480469
vt 0.234375 0.480469
vt 0.234375 0.500000
vt 0.257812 0.500000
vt 0.421875 0.468750
vt 0.445312 0.468750
vt 0.445312 0.484375
vt 0.421875 0.484375
vt 0.546875 0.937500
vt 0.562500 0.937500
vt 0.562500 0.953125
vt 0.546875 0.953125
vt 0.515625 0.562500
vt 0.539062 0.562500
vt 0.539062 0.578125
vt 0.515625 0.578125
vt 0.062500 0.437500
vt 0.078125 0.437500
vt 0.078125 0.453125
vt 0.062500 0.453125
vt 0.539062 0.546875
vt 0.515625 0.546875
vt 0.515625 0.531250
vt 0.539062 0.531250
vt 0.523438 0.468750
vt 0.500000 0.468750
vt 0.500000 0.484375
vt 0.523438 0.484375
vt 0.125000 0.476562
vt 0.140625 0.476562
vt 0.140625 0.500000
vt 0.125000 0.500000
vt 0.281250 0.476562
vt 0.300781 0.476562
vt 0.300781 0.500000
vt 0.281250 0.500000
vt 0.000000 0.460938
vt 0.015625 0.460938
vt 0.015625 0.484375
vt 0.000000 0.484375
vt 0.328125 0.476562
vt 0.347656 0.476562
vt 0.347656 0.500000
vt 0.328125 0.500000
vt 0.546875 1.000000
vt 0.531250 1.000000
vt 0.531250 0.980469
vt 0.546875 0.980469
vt 0.171875 0.449219
vt 0.156250 0.449219
vt 0.156250 0.468750
vt 0.171875 0.468750
vt 0.562500 0.851562
vt 0.585938 0.851562
vt 0.585938 0.859375
vt 0.562500 0.859375
vt 0.562500 0.820312
vt 0.585938 0.820312
vt 0.585938 0.828125
vt 0.562500 0.828125
vt 0.562500 0.789062
vt 0.585938 0.789062
vt 0.585938 0.796875
vt 0.562500 0.796875
vt 0.562500 0.757812
vt 0.585938 0.757812
vt 0.585938 0.765625
vt 0.562500 0.765625
vt 0.414062 0.546875
vt 0.390625 0.546875
vt 0.390625 0.523438
vt 0.414062 0.523438
vt 0.492188 0.882812
vt 0.468750 0.882812
vt 0.468750 0.906250
vt 0.492188 0.906250
vt 0.562500 0.730469
vt 0.589844 0.730469
vt 0.589844 0.734375
vt 0.562500 0.734375
vt 0.218750 0.417969
vt 0.238281 0.417969
vt 0.238281 0.421875
vt 0.218750 0.421875
vt 0.562500 0.699219
vt 0.589844 0.699219
vt 0.589844 0.703125
vt 0.562500 0.703125
vt 0.265625 0.417969
vt 0.285156 0.417969
vt 0.285156 0.421875
vt 0.265625 0.421875
vt 0.496094 0.859375
vt 0.468750 0.859375
vt 0.468750 0.839844
vt 0.496094 0.839844
vt 0.496094 0.730469
vt 0.468750 0.730469
vt 0.468750 0.750000
vt 0.496094 0.750000
vt 0.031250 0.570312
vt 0.058594 0.570312
vt 0.058594 0.593750
vt 0.031250 0.593750
vt 0.187500 0.414062
vt 0.191406 0.414062
vt 0.191406 0.437500
vt 0.187500 0.437500
vt 0.406250 0.914062
vt 0.433594 0.914062
vt 0.433594 0.937500
vt 0.406250 0.937500
vt 0.093750 0.398438
vt 0.097656 0.398438
vt 0.097656 0.421875
vt 0.093750 0.421875
vt 0.589844 0.671875
vt 0.562500 0.671875
vt 0.562500 0.667969
vt 0.589844 0.667969
vt 0.386719 0.433594
vt 0.359375 0.433594
vt 0.359375 0.437500
vt 0.386719 0.437500
vt 0.468750 0.683594
vt 0.496094 0.683594
vt 0.496094 0.703125
vt 0.468750 0.703125
vt 0.312500 0.402344
vt 0.316406 0.402344
vt 0.316406 0.421875
vt 0.312500 0.421875
vt 0.468750 0.636719
vt 0.496094 0.636719
vt 0.496094 0.656250
vt 0.468750 0.656250
vt 0.406250 0.402344
vt 0.410156 0.402344
vt 0.410156 0.421875
vt 0.406250 0.421875
vt 0.589844 0.640625
vt 0.562500 0.640625
vt 0.562500 0.636719
vt 0.589844 0.636719
vt 0.589844 0.605469
vt 0.562500 0.605469
vt 0.562500 0.609375
vt 0.589844 0.609375
vt 0.468750 0.589844
vt 0.496094 0.589844
vt 0.496094 0.609375
vt 0.468750 0.609375
vt 0.500000 0.402344
vt 0.503906 0.402344
vt 0.503906 0.421875
vt 0.500000 0.421875
vt 0.468750 0.542969
vt 0.496094 0.542969
vt 0.496094 0.562500
vt 0.468750 0.562500
vt 0.531250 0.402344
vt 0.535156 0.402344
vt 0.535156 0.421875
vt 0.531250 0.421875
vt 0.589844 0.578125
vt 0.562500 0.578125
vt 0.562500 0.574219
vt 0.589844 0.574219
vt 0.480469 0.433594
vt 0.453125 0.433594
vt 0.453125 0.437500
vt 0.480469 0.437500
vt 0.562500 0.542969
vt 0.589844 0.542969
vt 0.589844 0.546875
vt 0.562500 0.546875
vt 0.562500 0.417969
vt 0.582031 0.417969
vt 0.582031 0.421875
vt 0.562500 0.421875
vt 0.000000 0.417969
vt 0.027344 0.417969
vt 0.027344 0.421875
vt 0.000000 0.421875
vt 0.343750 0.402344
vt 0.363281 0.402344
vt 0.363281 0.406250
vt 0.343750 0.406250
vt 0.183594 0.515625
vt 0.156250 0.515625
vt 0.156250 0.496094
vt 0.183594 0.496094
vt 0.511719 0.792969
vt 0.484375 0.792969
vt 0.484375 0.812500
vt 0.511719 0.812500
vt 0.078125 0.570312
vt 0.105469 0.570312
vt 0.105469 0.593750
vt 0.078125 0.593750
vt 0.125000 0.398438
vt 0.128906 0.398438
vt 0.128906 0.421875
vt 0.125000 0.421875
vt 0.343750 0.570312
vt 0.371094 0.570312
vt 0.371094 0.593750
vt 0.343750 0.593750
vt 0.156250 0.398438
vt 0.160156 0.398438
vt 0.160156 0.421875
vt 0.156250 0.421875
vt 0.605469 0.968750
vt 0.578125 0.968750
vt 0.578125 0.964844
vt 0.605469 0.964844
vt 0.074219 0.417969
vt 0.046875 0.417969
vt 0.046875 0.421875
vt 0.074219 0.421875
vt 0.203125 0.625000
vt 0.230469 0.625000
vt 0.230469 0.703125
vt 0.203125 0.703125
vt 0.125000 0.515625
vt 0.132812 0.515625
vt 0.132812 0.593750
vt 0.125000 0.593750
vt 0.296875 0.703125
vt 0.324219 0.703125
vt 0.324219 0.781250
vt 0.296875 0.781250
vt 0.437500 0.812500
vt 0.445312 0.812500
vt 0.445312 0.890625
vt 0.437500 0.890625
vt 0.121094 0.453125
vt 0.093750 0.453125
vt 0.093750 0.445312
vt 0.121094 0.445312
vt 0.246094 0.445312
vt 0.218750 0.445312
vt 0.218750 0.453125
vt 0.246094 0.453125
vt 0.312500 0.921875
vt 0.339844 0.921875
vt 0.339844 1.000000
vt 0.312500 1.000000
vt 0.437500 0.593750
vt 0.445312 0.593750
vt 0.445312 0.671875
vt 0.437500 0.671875
vt 0.312500 0.828125
vt 0.339844 0.828125
vt 0.339844 0.906250
vt 0.312500 0.906250
vt 0.437500 0.500000
vt 0.445312 0.500000
vt 0.445312 0.578125
vt 0.437500 0.578125
vt 0.292969 0.453125
vt 0.265625 0.453125
vt 0.265625 0.445312
vt 0.292969 0.445312
vt 0.339844 0.445312
vt 0.312500 0.445312
vt 0.312500 0.453125
vt 0.339844 0.453125
vt 0.250000 0.914062
vt 0.285156 0.914062
vt 0.285156 1.000000
vt 0.250000 1.000000
vt 0.000000 0.804688
vt 0.054688 0.804688
vt 0.054688 0.890625
vt 0.000000 0.890625
vt 0.250000 0.804688
vt 0.285156 0.804688
vt 0.285156 0.890625
vt 0.250000 0.890625
vt 0.078125 0.804688
vt 0.132812 0.804688
vt 0.132812 0.890625
vt 0.078125 0.890625
vt 0.066406 0.671875
vt 0.031250 0.671875
vt 0.031250 0.617188
vt 0.066406 0.617188
vt 0.128906 0.617188
vt 0.093750 0.617188
vt 0.093750 0.671875
vt 0.128906 0.671875
vn -0.5630 -0.4813 -0.6718
vn 0.7661 0.0009 -0.6427
vn 0.5630 0.4813 0.6718
vn -0.7661 -0.0009 0.6427
vn -0.3100 0.8765 -0.3682
vn 0.3100 -0.8765 0.3682
vn -0.6173 0.2794 -0.7354
vn 0.6173 -0.2794 0.7354
vn 0.1789 0.9602 0.2147
vn -0.1789 -0.9602 -0.2147
vn -0.6173 0.2795 -0.7354
usemtl m_9d0862e8-3f43-9d31-d5e3-77d653dc656e
s 1
f 1/1/1 2/2/1 3/3/1 4/4/1
f 5/5/2 1/6/2 4/7/2 6/8/2
f 7/9/3 5/10/3 6/11/3 8/12/3
f 2/13/4 7/14/4 8/15/4 3/16/4
f 8/17/5 6/18/5 4/19/5 3/20/5
f 2/21/6 1/22/6 5/23/6 7/24/6
f 9/25/1 10/26/1 11/27/1 12/28/1
f 13/29/2 9/30/2 12/31/2 14/32/2
f 15/33/3 13/34/3 14/35/3 16/36/3
f 10/37/4 15/38/4 16/39/4 11/40/4
f 16/41/5 14/42/5 12/43/5 11/44/5
f 10/45/6 9/46/6 13/47/6 15/48/6
f 17/49/1 18/50/1 19/51/1 20/52/1
f 21/53/2 17/54/2 20/55/2 22/56/2
f 23/57/3 21/58/3 22/59/3 24/60/3
f 18/61/4 23/62/4 24/63/4 19/64/4
f 24/65/5 22/66/5 20/67/5 19/68/5
f 18/69/6 17/70/6 21/71/6 23/72/6
f 25/73/7 26/74/7 27/75/7 28/76/7
f 29/77/2 25/78/2 28/79/2 30/80/2
f 31/81/8 29/82/8 30/83/8 32/84/8
f 26/85/4 31/86/4 32/87/4 27/88/4
f 32/89/9 30/90/9 28/91/9 27/92/9
f 26/93/10 25/94/10 29/95/10 31/96/10
f 33/97/1 34/98/1 35/99/1 36/100/1
f 37/101/2 33/102/2 36/103/2 38/104/2
f 39/105/3 37/106/3 38/107/3 40/108/3
f 34/109/4 39/110/4 40/111/4 35/112/4
f 40/113/5 38/114/5 36/115/5 35/116/5
f 34/117/6 33/118/6 37/119/6 39/120/6
f 41/121/1 42/122/1 43/123/1 44/124/1
f 45/125/2 41/126/2 44/127/2 46/128/2
f 47/129/3 45/130/3 46/131/3 48/132/3
f 42/133/4 47/134/4 48/135/4 43/136/4
f 48/137/5 46/138/5 44/139/5 43/140/5
f 42/141/6 41/142/6 45/143/6 47/144/6
f 49/145/1 50/146/1 51/147/1 52/148/1
f 53/149/2 49/150/2 52/151/2 54/152/2
f 55/153/3 53/154/3 54/155/3 56/156/3
f 50/157/4 55/158/4 56/159/4 51/160/4
f 56/161/5 54/162/5 52/163/5 51/164/5
f 50/165/6 49/166/6 53/167/6 55/168/6
f 57/169/1 58/170/1 59/171/1 60/172/1
f 61/173/2 57/174/2 60/175/2 62/176/2
f 63/177/3 61/178/3 62/179/3 64/180/3
f 58/181/4 63/182/4 64/183/4 59/184/4
f 64/185/5 62/186/5 60/187/5 59/188/5
f 58/189/6 57/190/6 61/191/6 63/192/6
f 65/193/7 66/194/7 67/195/7 68/196/7
f 69/197/2 65/198/2 68/199/2 70/200/2
f 71/201/8 69/202/8 70/203/8 72/204/8
f 66/205/4 71/206/4 72/207/4 67/208/4
f 72/209/9 70/210/9 68/211/9 67/212/9
f 66/213/10 65/214/10 69/215/10 71/216/10
f 73/217/1 74/218/1 75/219/1 76/220/1
f 77/221/2 73/222/2 76/223/2 78/224/2
f 79/225/3 77/226/3 78/227/3 80/228/3
f 74/229/4 79/230/4 80/231/4 75/232/4
f 80/233/5 78/234/5 76/235/5 75/236/5
f 74/237/6 73/238/6 77/239/6 79/240/6
f 81/241/1 82/242/1 83/243/1 84/244/1
f 85/245/2 81/246/2 84/247/2 86/248/2
f 87/249/3 85/250/3 86/251/3 88/252/3
f 82/253/4 87/254/4 88/255/4 83/256/4
f 88/257/5 86/258/5 84/259/5 83/260/5
f 82/261/6 81/262/6 85/263/6 87/264/6
f 89/265/7 90/266/7 91/267/7 92/268/7
f 93/269/2 89/270/2 92/271/2 94/272/2
f 95/273/8 93/274/8 94/275/8 96/276/8
f 90/277/4 95/278/4 96/279/4 91/280/4
f 96/281/9 94/282/9 92/283/9 91/284/9
f 90/285/10 89/286/10 93/287/10 95/288/10
f 97/289/1 98/290/1 99/291/1 100/292/1
f 101/293/2 97/294/2 100/295/2 102/296/2
f 103/297/3 101/298/3 102/299/3 104/300/3
f 98/301/4 103/302/4 104/303/4 99/304/4
f 104/305/5 102/306/5 100/307/5 99/308/5
f 98/309/6 97/310/6 101/311/6 103/312/6
f 105/313/1 106/314/1 107/315/1 108/316/1
f 109/317/2 105/318/2 108/319/2 110/320/2
f 111/321/3 109/322/3 110/323/3 112/324/3
f 106/325/4 111/326/4 112/327/4 107/328/4
f 112/329/5 110/330/5 108/331/5 107/332/5
f 106/333/6 105/334/6 109/335/6 111/336/6
f 113/337/11 114/338/11 115/339/11 116/340/11
f 117/341/2 113/342/2 116/343/2 118/344/2
f 119/345/8 117/346/8 118/347/8 120/348/8
f 114/349/4 119/350/4 120/351/4 115/352/4
f 120/353/9 118/354/9 116/355/9 115/356/9
f 114/357/10 113/358/10 117/359/10 119/360/10
f 121/361/1 122/362/1 123/363/1 124/364/1
f 125/365/2 121/366/2 124/367/2 126/368/2
f 127/369/3 125/370/3 126/371/3 128/372/3
f 122/373/4 127/374/4 128/375/4 123/376/4
f 128/377/5 126/378/5 124/379/5 123/380/5
f 122/381/6 121/382/6 125/383/6 127/384/6
f 129/385/7 130/386/7 131/387/7 132/388/7
f 133/389/2 129/390/2 132/391/2 134/392/2
f 135/393/8 133/394/8 134/395/8 136/396/8
f 130/397/4 135/398/4 136/399/4 131/400/4
f 136/401/9 134/402/9 132/403/9 131/404/9
f 130/405/10 129/406/10 133/407/10 135/408/10
f 137/409/7 138/410/7 139/411/7 140/412/7
f 141/413/2 137/414/2 140/415/2 142/416/2
f 143/417/8 141/418/8 142/419/8 144/420/8
f 138/421/4 143/422/4 144/423/4 139/424/4
f 144/425/9 142/426/9 140/427/9 139/428/9
f 138/429/10 137/430/10 141/431/10 143/432/10
f 145/433/7 146/434/7 147/435/7 148/436/7
f 149/437/2 145/438/2 148/439/2 150/440/2
f 151/441/8 149/442/8 150/443/8 152/444/8
f 146/445/4 151/446/4 152/447/4 147/448/4
f 152/449/9 150/450/9 148/451/9 147/452/9
f 146/453/10 145/454/10 149/455/10 151/456/10
f 153/457/1 154/458/1 155/459/1 156/460/1
f 157/461/2 153/462/2 156/463/2 158/464/2
f 159/465/3 157/466/3 158/467/3 160/468/3
f 154/469/4 159/470/4 160/471/4 155/472/4
f 160/473/5 158/474/5 156/475/5 155/476/5
f 154/477/6 153/478/6 157/479/6 159/480/6
f 161/481/1 162/482/1 163/483/1 164/484/1
f 165/485/2 161/486/2 164/487/2 166/488/2
f 167/489/3 165/490/3 166/491/3 168/492/3
f 162/493/4 167/494/4 168/495/4 163/496/4
f 168/497/5 166/498/5 164/499/5 163/500/5
f 162/501/6 161/502/6 165/503/6 167/504/6
f 169/505/1 170/506/1 171/507/1 172/508/1
f 173/509/2 169/510/2 172/511/2 174/512/2
f 175/513/3 173/514/3 174/515/3 176/516/3
f 170/517/4 175/518/4 176/519/4 171/520/4
f 176/521/5 174/522/5 172/523/5 171/524/5
f 170/525/6 169/526/6 173/527/6 175/528/6
f 177/529/1 178/530/1 179/531/1 180/532/1
f 181/533/2 177/534/2 180/535/2 182/536/2
f 183/537/3 181/538/3 182/539/3 184/540/3
f 178/541/4 183/542/4 184/543/4 179/544/4
f 184/545/5 182/546/5 180/547/5 179/548/5
f 178/549/6 177/550/6 181/551/6 183/552/6
